
<svg width="800" height="800" viewBox="0 0 800 800" xmlns="http://www.w3.org/2000/svg">
  <rect width="800" height="800" rx="160" fill="#0B1120"/>
  <defs>
    <linearGradient id="fidugrad" x1="0%" y1="0%" x2="100%" y2="100%">
      <stop offset="0%" style="stop-color:#10B981;stop-opacity:1" />
      <stop offset="100%" style="stop-color:#06B6D4;stop-opacity:1" />
    </linearGradient>
    <filter id="glow" x="-20%" y="-20%" width="140%" height="140%">
      <feGaussianBlur stdDeviation="16" result="blur" />
      <feComposite in="SourceGraphic" in2="blur" operator="over" />
    </filter>
  </defs>
  <path d="M400 120 L620 220 V420 C620 580 400 700 400 700 C400 700 180 580 180 420 V220 L400 120 Z" fill="none" stroke="url(#fidugrad)" stroke-width="28" filter="url(#glow)"/>
  <rect x="320" y="380" width="160" height="130" rx="20" fill="url(#fidugrad)"/>
  <path d="M350 380 V320 C350 290 370 270 400 270 C430 270 450 290 450 320 V380" fill="none" stroke="url(#fidugrad)" stroke-width="24" stroke-linecap="round"/>
  <circle cx="400" cy="435" r="18" fill="#0B1120"/>
  <path d="M400 450 V480" stroke="#0B1120" stroke-width="12" stroke-linecap="round"/>
</svg>